<?xml version="1.0" encoding="utf-8"?>
<!-- Generator: Adobe Illustrator 24.1.2, SVG Export Plug-In . SVG Version: 6.00 Build 0)  -->
<svg version="1.1" id="Layer_1" xmlns="http://www.w3.org/2000/svg" xmlns:xlink="http://www.w3.org/1999/xlink" x="0px" y="0px"
	 viewBox="0 0 100 100" style="enable-background:new 0 0 100 100;" xml:space="preserve">
<style type="text/css">
	.st0{fill:none;stroke:#231F20;stroke-width:0.75;stroke-linecap:round;stroke-linejoin:round;}
	.st1{stroke:#FFFFFF;stroke-width:0.5;stroke-linecap:round;stroke-linejoin:round;stroke-miterlimit:10;}
	.st2{fill:none;stroke:#FFFFFF;stroke-width:0.5;stroke-linecap:round;stroke-linejoin:round;stroke-miterlimit:10;}
	.st3{fill:#00FFFF;stroke:#FFFFFF;stroke-width:0.5;stroke-linecap:round;stroke-linejoin:round;stroke-miterlimit:10;}
	.st4{fill:#000080;stroke:#FFFFFF;stroke-width:0.5;stroke-linecap:round;stroke-linejoin:round;stroke-miterlimit:10;}
	.st5{fill:#0000FF;stroke:#FFFFFF;stroke-width:0.5;stroke-linecap:round;stroke-linejoin:round;stroke-miterlimit:10;}
	.st6{fill:none;stroke:#FFFFFF;stroke-width:0.5;stroke-linecap:round;stroke-linejoin:round;}
	.st7{fill:#0000FF;stroke:#FFFFFF;stroke-width:0.23;stroke-miterlimit:10;}
</style>
<path class="st0" d="M50,50"/>
<path class="st0" d="M50,50"/>
<path class="st0" d="M50,50"/>
<path class="st0" d="M50,50"/>
<path class="st0" d="M50,50"/>
<path class="st0" d="M50,50"/>
<g>
	<g>
		<g>
			<path class="st1" d="M49.9,50"/>
			<path class="st1" d="M49.7,98.8"/>
			<line class="st2" x1="92.1" y1="74.5" x2="92.1" y2="74.5"/>
			<path class="st1" d="M49.9,50"/>
			<path class="st1" d="M7.9,25.5"/>
			<path class="st1" d="M49.9,50"/>
			<path class="st1" d="M92.3,25.8"/>
		</g>
		<g>
			<polygon class="st3" points="92.3,25.8 78.1,50.1 71,62.2 50.1,25.6 			"/>
			<polygon class="st3" points="50.1,25.6 28.8,62.1 21.8,49.9 7.9,25.5 			"/>
			<polygon class="st3" points="71,62.2 63.9,74.4 49.7,98.8 35.8,74.3 28.8,62.1 			"/>
			<path class="st1" d="M35.8,74.3"/>
			<path class="st1" d="M63.9,74.4"/>
			<polygon class="st4" points="35.8,74.3 7.7,74.2 28.8,62.1 			"/>
			<polygon class="st4" points="92.1,74.5 63.9,74.4 71,62.2 			"/>
			<polygon class="st4" points="92.1,74.5 92.1,74.5 71,62.2 71,62.2 78.1,50.1 			"/>
			<path class="st1" d="M21.8,49.9"/>
			<path class="st1" d="M35.9,25.6"/>
			<polygon class="st4" points="28.8,62.1 7.7,74.2 21.8,49.9 			"/>
			<path class="st1" d="M78.1,50.1"/>
			<path class="st1" d="M64.1,25.7"/>
			<g>
				<line class="st2" x1="50.1" y1="25.6" x2="50.1" y2="25.6"/>
				<line class="st2" x1="50.1" y1="25.6" x2="50.1" y2="1.2"/>
				<polygon class="st4" points="64,25.6 35.8,25.6 50.1,1.2 				"/>
			</g>
		</g>
		<polygon class="st5" points="50.1,25.6 49.9,50 49.9,50 28.8,62.1 		"/>
		<polygon class="st5" points="71,62.2 28.8,62.1 49.9,50 49.9,50 		"/>
		<polygon class="st5" points="71,62.2 71,62.2 49.9,50 50.1,25.6 		"/>
		<g>
			<path class="st1" d="M71.1,37.9"/>
			<path class="st1" d="M28.9,37.8"/>
			<path class="st1" d="M71.1,37.9"/>
			<path class="st1" d="M28.9,37.8"/>
			<path class="st1" d="M71.1,37.9"/>
			<path class="st1" d="M49.7,98.8"/>
			<path class="st1" d="M29,37.8"/>
			<path class="st1" d="M49.7,98.8"/>
			<path class="st1" d="M28.8,62.1"/>
			<path class="st1" d="M92.1,74.5"/>
			<path class="st1" d="M50.1,25.6"/>
			<path class="st1" d="M92.1,74.5"/>
			<path class="st1" d="M92.3,25.8"/>
			<path class="st1" d="M29,37.8"/>
			<path class="st1" d="M92.3,25.8"/>
			<path class="st1" d="M71,62.2"/>
			<path class="st1" d="M50.2,1.3"/>
			<path class="st1" d="M28.8,62.1"/>
			<path class="st1" d="M50.2,1.3"/>
			<path class="st1" d="M7.9,25.5"/>
			<path class="st1" d="M7.9,25.5"/>
			<path class="st1" d="M50.1,25.6"/>
			<path class="st1" d="M7.7,74.2"/>
			<path class="st1" d="M71,62.2"/>
			<path class="st1" d="M7.7,74.2"/>
		</g>
	</g>
	<line class="st6" x1="50.1" y1="25.6" x2="50.1" y2="1.2"/>
</g>
<g>
	<g>
		<path class="st7" d="M50,100C22.5,100,0,77.6,0,50S22.5,0,50,0s50,22.4,50,50S77.5,100,50,100z M50,1C23,1,0.9,23,0.9,50
			s21.9,49,49,49s49-21.9,49-49S76.9,1,50,1z"/>
	</g>
</g>
</svg>
