<?xml version="1.0" encoding="utf-8"?>
<!-- Generator: Adobe Illustrator 24.1.2, SVG Export Plug-In . SVG Version: 6.00 Build 0)  -->
<svg version="1.1" id="Layer_1" xmlns="http://www.w3.org/2000/svg" xmlns:xlink="http://www.w3.org/1999/xlink" x="0px" y="0px"
	 viewBox="0 0 100 100" style="enable-background:new 0 0 100 100;" xml:space="preserve">
<style type="text/css">
	.st0{fill:#FFFFFF;}
	.st1{fill:#1A1AFF;}
	.st2{fill:#4F0A75;}
	.st3{fill:#FFFF00;}
	.st4{fill:#4F0A75;stroke:#FFFFFF;stroke-width:0.1;stroke-miterlimit:10;}
</style>
<g>
	<g>
		<path class="st0" d="M70.2,38.2L49.9,73.7L29.6,38.2H70.2 M70.6,38H29.2l20.7,36.2L70.6,38L70.6,38z"/>
	</g>
	<g>
		<polygon class="st1" points="50.1,74 70.6,38.2 91.4,74 		"/>
		<path class="st0" d="M70.6,38.4l20.6,35.5H50.3L70.6,38.4 M70.6,38L49.9,74.1h41.7L70.6,38L70.6,38z"/>
	</g>
	<g>
		<polygon class="st1" points="29.4,37.9 49.9,2.1 70.4,37.9 		"/>
		<path class="st0" d="M49.9,2.4l20.3,35.4H29.6L49.9,2.4 M49.9,1.9L29.2,38h41.5L49.9,1.9L49.9,1.9z"/>
	</g>
	<g>
		<polygon class="st2" points="50,74.3 91.2,74.3 50,97.9 		"/>
		<path class="st0" d="M90.7,74.4L50.1,97.7V74.4H90.7 M91.6,74.1H49.9v24L91.6,74.1L91.6,74.1z"/>
	</g>
	<g>
		<polygon class="st2" points="8.6,74.3 49.8,74.3 49.8,97.9 		"/>
		<path class="st0" d="M49.7,74.4v23.3L9.1,74.4H49.7 M49.9,74.1H8.2l41.7,24V74.1L49.9,74.1z"/>
	</g>
	<g>
		<polygon class="st2" points="8.5,25.9 49.6,2.2 29.1,37.8 		"/>
		<path class="st0" d="M49.3,2.5L29.1,37.7L8.7,25.9L49.3,2.5 M49.9,1.9L8.2,25.9l20.9,12L49.9,1.9L49.9,1.9z"/>
	</g>
	<g>
		<polygon class="st2" points="50.2,2.2 91.4,25.9 70.7,37.8 		"/>
		<path class="st0" d="M50.5,2.5l40.6,23.4L70.7,37.7L50.5,2.5 M49.9,1.9L70.6,38l20.9-12L49.9,1.9L49.9,1.9z"/>
	</g>
	<g>
		<polygon class="st1" points="8.4,74 29.2,38.2 49.7,74 		"/>
		<path class="st0" d="M29.1,38.4l20.4,35.5H8.6L29.1,38.4 M29.2,38L8.2,74.1h41.7L29.2,38L29.2,38z"/>
	</g>
	<g>
		<polygon class="st2" points="8.3,26.2 29,38 8.3,73.7 		"/>
		<path class="st0" d="M8.5,26.3L28.9,38L8.5,73.3V26.3 M8.2,25.9v48.2L29.2,38L8.2,25.9L8.2,25.9z"/>
	</g>
	<g>
		<polygon class="st2" points="70.8,38 91.5,26.2 91.5,73.7 		"/>
		<path class="st0" d="M91.4,26.3v46.9L70.9,38.1L91.4,26.3 M91.6,25.9L70.6,38l20.9,36.2V25.9L91.6,25.9z"/>
	</g>
	<g>
		<polygon class="st3" points="29.4,38.1 70.4,38.1 49.9,73.9 		"/>
		<path class="st0" d="M70.2,38.2L49.9,73.7L29.6,38.2H70.2 M70.6,38H29.2l20.7,36.2L70.6,38L70.6,38z"/>
	</g>
</g>
<g>
	<g>
		<g>
			<path class="st4" d="M50,99C23,99,1,77,1,50S23,1,50,1s49,22,49,49S77,99,50,99z M49.9,1.8C23.3,1.8,1.7,23.4,1.7,50
				s21.6,48.2,48.2,48.2S98.1,76.6,98.1,50S76.5,1.8,49.9,1.8z"/>
		</g>
	</g>
</g>
</svg>
