<?xml version="1.0" encoding="utf-8"?>
<!-- Generator: Adobe Illustrator 24.1.2, SVG Export Plug-In . SVG Version: 6.00 Build 0)  -->
<svg version="1.1" id="Layer_1" xmlns="http://www.w3.org/2000/svg" xmlns:xlink="http://www.w3.org/1999/xlink" x="0px" y="0px"
	 viewBox="0 0 100 100" style="enable-background:new 0 0 100 100;" xml:space="preserve">
<style type="text/css">
	.st0{fill:none;stroke:#FFFFFF;stroke-width:0.5;stroke-linecap:round;stroke-linejoin:round;stroke-miterlimit:10;}
	.st1{fill:#FFFF00;stroke:#FFFFFF;stroke-width:0.5;stroke-linecap:round;stroke-linejoin:round;stroke-miterlimit:10;}
	.st2{fill:#FFFF00;stroke:#FFFFFF;stroke-width:0.5;stroke-miterlimit:10;}
</style>
<g>
	<line class="st0" x1="50" y1="17.8" x2="50" y2="17.8"/>
	<line class="st0" x1="50" y1="66.1" x2="50" y2="66.1"/>
	<line class="st0" x1="50" y1="33.9" x2="50" y2="33.9"/>
	<line class="st0" x1="50" y1="50" x2="50" y2="50"/>
	<line class="st0" x1="63.9" y1="42" x2="63.9" y2="42"/>
	<line class="st0" x1="36.1" y1="58.1" x2="36.1" y2="58.1"/>
	<polygon class="st1" points="50,17.8 50,50 43,54 36.1,58.1 22.1,66.1 31.4,50 36.1,42 36.1,42 36.1,42 36.1,42 40.7,33.9 	"/>
	<line class="st0" x1="36.1" y1="42" x2="36.1" y2="42"/>
	<line class="st0" x1="50" y1="66.1" x2="50" y2="66.1"/>
	<line class="st0" x1="50" y1="66.1" x2="50" y2="66.1"/>
	<line class="st0" x1="50" y1="66.1" x2="50" y2="66.1"/>
	<polygon class="st1" points="77.9,66.1 22.1,66.1 36.1,58.1 43,54 50,50 57,54 63.9,58.1 63.9,58.1 	"/>
	<polygon class="st1" points="77.9,66.1 77.9,66.1 63.9,58.1 63.9,58.1 57,54 50,50 50,17.8 59.3,33.9 63.9,41.9 63.9,42 63.9,42 
		68.6,50 	"/>
	<line class="st0" x1="36.1" y1="58.1" x2="36.1" y2="58.1"/>
	<line class="st0" x1="36.1" y1="58.1" x2="36.1" y2="58.1"/>
	<line class="st0" x1="50" y1="66.1" x2="50" y2="66.1"/>
	<path class="st1" d="M43,54"/>
	<path class="st1" d="M36.1,42"/>
	<path class="st1" d="M50,66.1"/>
	<path class="st1" d="M43,54"/>
	<path class="st1" d="M63.9,42"/>
	<path class="st1" d="M57,54"/>
	<path class="st1" d="M50,66.1"/>
	<path class="st1" d="M57,54"/>
	<line class="st0" x1="50" y1="66.1" x2="50" y2="66.1"/>
	<line class="st0" x1="63.9" y1="42" x2="63.9" y2="42"/>
	<path class="st1" d="M36.1,42"/>
	<path class="st1" d="M50,42"/>
	<path class="st1" d="M50,42"/>
	<path class="st1" d="M63.9,42"/>
	<line class="st0" x1="36.1" y1="58.1" x2="36.1" y2="58.1"/>
	<line class="st0" x1="36.1" y1="58.1" x2="36.1" y2="58.1"/>
	<line class="st0" x1="36.1" y1="58.1" x2="36.1" y2="58.1"/>
	<line class="st0" x1="50" y1="66.1" x2="50" y2="66.1"/>
	<line class="st0" x1="63.9" y1="42" x2="63.9" y2="42"/>
	<line class="st0" x1="63.9" y1="58.1" x2="63.9" y2="58.1"/>
</g>
<path class="st2" d="M42,80.6l8,17.9l8-17.9c-2.6,0.7-5.2,1-8,1S44.6,81.2,42,80.6z"/>
<path class="st2" d="M58,19.4L50,1.5l-8,17.9c2.6-0.7,5.2-1,8-1C52.7,18.4,55.4,18.8,58,19.4z"/>
<path class="st2" d="M41.7,19.5L25.8,8l2,19.5c2.9-2.8,6.2-5,9.9-6.6C38.9,20.3,40.3,19.9,41.7,19.5z"/>
<path class="st2" d="M58.3,80.5L74.2,92l-2-19.5c-2.9,2.8-6.2,5-9.9,6.6C61.1,79.7,59.7,80.1,58.3,80.5z"/>
<path class="st2" d="M27.5,27.8L8,25.8l11.5,15.9c0.4-1.4,0.8-2.6,1.4-3.9C22.5,34,24.7,30.7,27.5,27.8z"/>
<path class="st2" d="M72.5,72.2l19.5,2L80.5,58.3c-0.4,1.4-0.8,2.6-1.4,3.9C77.5,66,75.3,69.3,72.5,72.2z"/>
<path class="st2" d="M19.4,42L1.5,50l17.9,8c-0.7-2.6-1-5.2-1-8C18.4,47.3,18.8,44.6,19.4,42z"/>
<path class="st2" d="M80.6,58l17.9-8l-17.9-8c0.7,2.6,1,5.2,1,8C81.6,52.7,81.2,55.4,80.6,58z"/>
<path class="st2" d="M19.5,58.3L8,74.2l19.5-2c-2.8-2.9-5-6.2-6.6-9.9C20.3,61.1,19.9,59.7,19.5,58.3z"/>
<path class="st2" d="M80.5,41.7L92,25.8l-19.5,2c2.8,2.9,5,6.2,6.6,9.9C79.7,38.9,80.1,40.3,80.5,41.7z"/>
<path class="st2" d="M72.2,27.5l2-19.5L58.3,19.5c1.4,0.4,2.6,0.8,3.9,1.4C66,22.5,69.3,24.7,72.2,27.5z"/>
<path class="st2" d="M27.8,72.5l-2,19.5l15.9-11.5c-1.4-0.4-2.6-0.8-3.9-1.4C34,77.5,30.7,75.3,27.8,72.5z"/>
</svg>
