<?xml version="1.0" encoding="utf-8"?>
<!-- Generator: Adobe Illustrator 24.1.2, SVG Export Plug-In . SVG Version: 6.00 Build 0)  -->
<svg version="1.1" id="Layer_1" xmlns="http://www.w3.org/2000/svg" xmlns:xlink="http://www.w3.org/1999/xlink" x="0px" y="0px"
	 viewBox="0 0 100 100" style="enable-background:new 0 0 100 100;" xml:space="preserve">
<style type="text/css">
	.st0{fill:none;stroke:#FFFFFF;stroke-width:0.2964;stroke-linecap:round;stroke-linejoin:round;stroke-miterlimit:10;}
	.st1{fill:#FFFF00;stroke:#FFFFFF;stroke-width:0.2964;stroke-linecap:round;stroke-linejoin:round;stroke-miterlimit:10;}
	.st2{fill:#FFFF00;stroke:#FFFFFF;stroke-width:9.994770e-02;stroke-miterlimit:10;}
	.st3{fill:#FFFF00;}
</style>
<g>
	<g>
		<line class="st0" x1="50" y1="2" x2="50" y2="2"/>
		<line class="st0" x1="50" y1="74" x2="50" y2="74"/>
		<line class="st0" x1="50" y1="26" x2="50" y2="26"/>
		<line class="st0" x1="50" y1="50" x2="50" y2="50"/>
		<line class="st0" x1="70.8" y1="38.1" x2="70.8" y2="38.1"/>
		<line class="st0" x1="29.2" y1="62.1" x2="29.2" y2="62.1"/>
		<polygon class="st1" points="50,2 50,50 39.6,56.1 29.2,62.1 8.4,74 22.2,50 29.2,38.1 29.2,38.1 29.2,38.1 29.2,38.1 36.2,26 		
			"/>
		<line class="st0" x1="29.2" y1="38.1" x2="29.2" y2="38.1"/>
		<line class="st0" x1="50" y1="74" x2="50" y2="74"/>
		<line class="st0" x1="50" y1="74" x2="50" y2="74"/>
		<line class="st0" x1="50" y1="74" x2="50" y2="74"/>
		<polygon class="st1" points="91.6,74 8.4,74 29.2,62.1 39.6,56.1 50,50 60.4,56.1 70.8,62.1 70.8,62.1 		"/>
		<polygon class="st1" points="91.6,74 91.6,74 70.8,62.1 70.8,62.1 60.4,56.1 50,50 50,2 63.8,26 70.8,38 70.8,38.1 70.8,38.1 
			77.8,50 		"/>
		<line class="st0" x1="29.2" y1="62.1" x2="29.2" y2="62.1"/>
		<line class="st0" x1="29.2" y1="62.1" x2="29.2" y2="62.1"/>
		<line class="st0" x1="50" y1="74" x2="50" y2="74"/>
		<path class="st1" d="M39.6,56.1"/>
		<path class="st1" d="M29.2,38.1"/>
		<path class="st1" d="M50,74"/>
		<path class="st1" d="M39.6,56.1"/>
		<path class="st1" d="M70.8,38.1"/>
		<path class="st1" d="M60.4,56.1"/>
		<path class="st1" d="M50,74"/>
		<path class="st1" d="M60.4,56.1"/>
		<line class="st0" x1="50" y1="74" x2="50" y2="74"/>
		<line class="st0" x1="70.8" y1="38.1" x2="70.8" y2="38.1"/>
		<path class="st1" d="M29.2,38.1"/>
		<path class="st1" d="M50,38.1"/>
		<path class="st1" d="M50,38.1"/>
		<path class="st1" d="M70.8,38.1"/>
		<line class="st0" x1="29.2" y1="62.1" x2="29.2" y2="62.1"/>
		<line class="st0" x1="29.2" y1="62.1" x2="29.2" y2="62.1"/>
		<line class="st0" x1="29.2" y1="62.1" x2="29.2" y2="62.1"/>
		<line class="st0" x1="50" y1="74" x2="50" y2="74"/>
		<line class="st0" x1="70.8" y1="38.1" x2="70.8" y2="38.1"/>
		<line class="st0" x1="70.8" y1="62.1" x2="70.8" y2="62.1"/>
	</g>
	<g>
		<g>
			<path class="st2" d="M50,99C23,99,1,77,1,50S23,1,50,1s49,22,49,49S77,99,50,99z M50,2C23.5,2,1.9,23.5,1.9,50s21.5,48,48,48
				s48-21.5,48-48S76.4,2,50,2z"/>
		</g>
	</g>
	<g>
		<path class="st3" d="M56.5,14.1c0.1,0,0.2,0.1,0.3,0.1"/>
	</g>
</g>
</svg>
